<svg xmlns="http://www.w3.org/2000/svg" width="32" height="32" viewBox="0 0 32 32" fill="none">
  <path d="M20.6676 23.6667L22.3922 26.0274C22.554 26.2837 22.8651 26.3981 23.1491 26.2966C24.2208 25.9138 26.8772 24.8763 29.0644 23.2967C29.235 23.1735 29.3335 22.9682 29.3322 22.7565C29.3322 11.0001 26.0009 7.66675 26.0009 7.66675C26.0009 7.66675 23.3343 6.13625 20.4728 5.67477C20.1914 5.62936 19.9156 5.7802 19.7904 6.03863L19.1971 7.26244C19.1971 7.26244 17.7136 6.95204 15.9999 6.95204C14.2862 6.95204 12.8027 7.26244 12.8027 7.26244L12.2094 6.03863C12.0841 5.7802 11.8085 5.62936 11.5269 5.67477C8.6676 6.13591 6.00094 7.66675 6.00094 7.66675C6.00094 7.66675 2.66762 11.0001 2.66762 22.7565C2.66628 22.9682 2.76475 23.1735 2.93534 23.2967C5.1225 24.8763 7.77895 25.9138 8.85063 26.2966C9.13462 26.3981 9.44571 26.2837 9.60764 26.0274L11.3343 23.6667" stroke="black" stroke-width="2" stroke-linecap="round" stroke-linejoin="round"/>
  <path d="M23.3343 22.3333C23.3343 22.3333 20.2741 24.3333 16.0009 24.3333C11.7277 24.3333 8.6676 22.3333 8.6676 22.3333" stroke="black" stroke-width="2" stroke-linecap="round" stroke-linejoin="round"/>
  <path d="M23.0011 16.3334C23.0011 17.8062 21.9565 19.0001 20.6678 19.0001C19.3791 19.0001 18.3345 17.8062 18.3345 16.3334C18.3345 14.8606 19.3791 13.6667 20.6678 13.6667C21.9565 13.6667 23.0011 14.8606 23.0011 16.3334Z" stroke="black" stroke-width="2"/>
  <path d="M13.6677 16.3334C13.6677 17.8062 12.623 19.0001 11.3343 19.0001C10.0457 19.0001 9.00098 17.8062 9.00098 16.3334C9.00098 14.8606 10.0457 13.6667 11.3343 13.6667C12.623 13.6667 13.6677 14.8606 13.6677 16.3334Z" stroke="black" stroke-width="2"/>
</svg>