<svg xmlns="http://www.w3.org/2000/svg" width="32" height="32" viewBox="0 0 32 32" fill="none">
  <path d="M3.33337 15.9999C3.33337 10.0288 3.33337 7.04324 5.18836 5.18824C7.04336 3.33325 10.0289 3.33325 16 3.33325C21.9711 3.33325 24.9567 3.33325 26.8118 5.18824C28.6667 7.04324 28.6667 10.0288 28.6667 15.9999C28.6667 21.971 28.6667 24.9566 26.8118 26.8117C24.9567 28.6666 21.9711 28.6666 16 28.6666C10.0289 28.6666 7.04336 28.6666 5.18836 26.8117C3.33337 24.9566 3.33337 21.971 3.33337 15.9999Z" stroke="black" stroke-width="2" stroke-linejoin="round"/>
  <path d="M22 16C22 19.3137 19.3137 22 16 22C12.6863 22 10 19.3137 10 16C10 12.6863 12.6863 10 16 10C19.3137 10 22 12.6863 22 16Z" stroke="black" stroke-width="2"/>
  <path d="M23.3437 8.66675H23.3317" stroke="black" stroke-width="2.66667" stroke-linecap="round" stroke-linejoin="round"/>
</svg>