<svg xmlns="http://www.w3.org/2000/svg" width="32" height="32" viewBox="0 0 32 32" fill="none">
  <path d="M5.99996 12.6667H5.33329C4.07621 12.6667 3.44768 12.6667 3.05715 13.0573C2.66663 13.4478 2.66663 14.0763 2.66663 15.3334V26.6667C2.66663 27.9238 2.66663 28.5523 3.05715 28.9429C3.44768 29.3334 4.07621 29.3334 5.33329 29.3334H5.99996C7.25704 29.3334 7.88557 29.3334 8.27611 28.9429C8.66663 28.5523 8.66663 27.9238 8.66663 26.6667V15.3334C8.66663 14.0763 8.66663 13.4478 8.27611 13.0573C7.88557 12.6667 7.25704 12.6667 5.99996 12.6667Z" stroke="black" stroke-width="2"/>
  <path d="M8.66663 5.66675C8.66663 7.3236 7.32348 8.66675 5.66663 8.66675C4.00977 8.66675 2.66663 7.3236 2.66663 5.66675C2.66663 4.00989 4.00977 2.66675 5.66663 2.66675C7.32348 2.66675 8.66663 4.00989 8.66663 5.66675Z" stroke="black" stroke-width="2"/>
  <path d="M16.4346 12.6667H15.3333C14.0762 12.6667 13.4477 12.6667 13.0571 13.0573C12.6666 13.4478 12.6666 14.0763 12.6666 15.3334V26.6667C12.6666 27.9238 12.6666 28.5523 13.0571 28.9429C13.4477 29.3334 14.0762 29.3334 15.3333 29.3334H16C17.257 29.3334 17.8856 29.3334 18.2761 28.9429C18.6666 28.5523 18.6666 27.9238 18.6666 26.6667L18.6668 22.0002C18.6668 19.7911 19.3708 18.0002 21.4505 18.0002C22.4902 18.0002 23.3333 18.8957 23.3333 20.0002V26.0002C23.3333 27.2573 23.3333 27.8858 23.7238 28.2763C24.1142 28.6669 24.7429 28.6669 26 28.6669H26.6649C27.9217 28.6669 28.5501 28.6669 28.9406 28.2765C29.3312 27.8861 29.3313 27.2577 29.3316 26.0009L29.3334 18.667C29.3334 15.3534 26.1818 12.6671 23.0624 12.6671C21.2865 12.6671 19.7022 13.5375 18.6668 14.8987C18.6666 14.0586 18.6666 13.6386 18.4842 13.3267C18.3686 13.1292 18.2041 12.9648 18.0066 12.8492C17.6948 12.6667 17.2748 12.6667 16.4346 12.6667Z" stroke="black" stroke-width="2" stroke-linejoin="round"/>
</svg>