<svg width="634" height="382" viewBox="0 0 634 382" fill="none" xmlns="http://www.w3.org/2000/svg">
<path d="M350.084 131.285C340.595 122.329 332.931 111.657 327.491 99.8379L518.538 15.3135C523.625 27.288 526.367 40.138 526.612 53.1838C526.867 66.7309 524.425 80.2245 519.424 92.8942C514.423 105.564 506.961 117.162 497.463 127.024C487.966 136.887 476.619 144.821 464.07 150.372C451.522 155.924 438.019 158.985 424.332 159.379C410.646 159.774 397.045 157.495 384.305 152.674C371.566 147.854 359.938 140.585 350.084 131.285Z" fill="#12D861" stroke="black" stroke-width="3"/>
<path d="M414.317 121.107L407.913 106.584L411.544 104.983L412.267 106.623L412.794 106.39C412.751 105.71 412.913 105.126 413.28 104.637C413.667 104.14 414.192 103.745 414.856 103.453L416.613 102.678L418.059 105.957L416.244 106.758C415.307 107.171 414.648 107.765 414.266 108.539C413.876 109.294 413.909 110.188 414.366 111.223L418.007 119.48L414.317 121.107ZM431.331 114.094C429.887 114.731 428.475 114.992 427.095 114.878C425.727 114.735 424.485 114.245 423.37 113.408C422.265 112.543 421.377 111.349 420.706 109.826L420.551 109.475C419.88 107.952 419.601 106.501 419.716 105.122C419.822 103.723 420.288 102.48 421.114 101.393C421.932 100.286 423.063 99.4142 424.507 98.7772C425.932 98.1489 427.314 97.9244 428.652 98.1038C429.981 98.2636 431.188 98.7805 432.273 99.6544C433.35 100.509 434.215 101.678 434.869 103.161L435.424 104.42L424.854 109.081C425.332 110.059 426.06 110.706 427.038 111.021C428.016 111.336 429.013 111.269 430.028 110.822C431.063 110.365 431.725 109.805 432.015 109.141C432.305 108.477 432.456 107.816 432.469 107.157L436.182 107.408C436.133 108.036 435.978 108.769 435.718 109.607C435.468 110.416 435.009 111.225 434.339 112.033C433.661 112.822 432.658 113.509 431.331 114.094ZM423.67 106.316L430.463 103.321C430.014 102.516 429.376 101.993 428.547 101.752C427.738 101.503 426.855 101.589 425.898 102.011C424.903 102.45 424.224 103.052 423.862 103.818C423.5 104.584 423.436 105.416 423.67 106.316ZM445.243 107.959C444.209 108.416 443.204 108.649 442.229 108.659C441.246 108.649 440.36 108.411 439.57 107.943C438.792 107.447 438.183 106.701 437.744 105.705C437.306 104.71 437.174 103.777 437.35 102.907C437.536 102.008 437.976 101.208 438.669 100.506C439.373 99.7761 440.272 99.17 441.365 98.688L445.347 96.9321L444.986 96.1123C444.684 95.4291 444.224 94.9675 443.605 94.7274C442.978 94.4678 442.196 94.5446 441.259 94.9577C440.341 95.3623 439.753 95.8783 439.493 96.5057C439.225 97.1135 439.169 97.7795 439.325 98.5034L435.425 98.8591C435.332 98.0141 435.406 97.1771 435.647 96.3482C435.898 95.4912 436.372 94.6879 437.067 93.9383C437.774 93.1605 438.751 92.4962 440.001 91.9454C441.913 91.1019 443.637 90.913 445.172 91.3789C446.706 91.8447 447.873 92.9853 448.674 94.8007L451.062 100.217C451.321 100.803 451.723 100.975 452.27 100.734L453.441 100.218L454.784 103.263L452.324 104.347C451.602 104.666 450.929 104.753 450.306 104.608C449.682 104.463 449.241 104.098 448.983 103.512L448.97 103.483L448.414 103.729C448.439 103.997 448.401 104.387 448.3 104.898C448.19 105.389 447.907 105.91 447.451 106.461C446.994 107.012 446.258 107.512 445.243 107.959ZM444.571 104.689C445.605 104.233 446.32 103.579 446.714 102.729C447.12 101.851 447.112 100.934 446.69 99.9772L446.561 99.6844L442.842 101.324C442.159 101.625 441.687 102.008 441.425 102.473C441.164 102.938 441.15 103.434 441.382 103.961C441.614 104.488 442.009 104.828 442.565 104.979C443.121 105.13 443.79 105.033 444.571 104.689ZM462.353 100.415C461.202 100.923 459.993 101.117 458.729 100.999C457.475 100.852 456.3 100.356 455.205 99.51C454.109 98.6642 453.212 97.4508 452.515 95.8697L452.309 95.4012C451.611 93.8201 451.32 92.3398 451.435 90.9604C451.549 89.5809 451.979 88.3886 452.725 87.3836C453.462 86.359 454.417 85.5885 455.588 85.0721C456.466 84.6847 457.246 84.4693 457.926 84.4258C458.617 84.3542 459.217 84.3928 459.726 84.5415C460.234 84.6903 460.664 84.8974 461.014 85.1626L461.541 84.9302L458.171 77.2882L461.86 75.6614L470.898 96.1573L467.267 97.7582L466.493 96.0015L465.966 96.2338C465.875 96.9267 465.577 97.6526 465.072 98.4114C464.587 99.1616 463.681 99.8294 462.353 100.415ZM462.046 96.7033C463.178 96.2041 463.965 95.4255 464.408 94.3676C464.842 93.2901 464.75 92.0487 464.13 90.6433L464.001 90.3505C463.381 88.945 462.531 88.049 461.452 87.6625C460.383 87.2478 459.272 87.2944 458.121 87.8022C456.989 88.3015 456.205 89.0898 455.771 90.1672C455.328 91.2251 455.417 92.4568 456.037 93.8623L456.166 94.1551C456.785 95.5605 457.64 96.4662 458.728 96.8723C459.808 97.2588 460.914 97.2025 462.046 96.7033ZM478.273 99.8997L476.853 96.679L484.758 93.193C485.305 92.952 485.449 92.5387 485.191 91.9531L483.577 88.2931L483.05 88.5255C483.04 88.9262 482.942 89.3656 482.757 89.8438C482.571 90.322 482.243 90.7932 481.772 91.2576C481.3 91.7219 480.625 92.1477 479.747 92.535C478.615 93.0343 477.507 93.2195 476.425 93.0907C475.353 92.9338 474.381 92.4999 473.508 91.789C472.635 91.0782 471.935 90.1274 471.41 88.9367L467.589 80.2699L471.278 78.6431L474.971 87.0171C475.453 88.1102 476.078 88.8138 476.846 89.128C477.633 89.4335 478.525 89.3668 479.52 88.9279C480.652 88.4286 481.367 87.6704 481.665 86.6532C481.954 85.6165 481.801 84.4247 481.207 83.0779L477.954 75.6994L481.643 74.0726L489.183 91.172C489.622 92.1675 489.678 93.0871 489.351 93.931C489.032 94.7943 488.384 95.4411 487.408 95.8715L478.273 99.8997Z" fill="black"/>
<path d="M215.204 13.985C215.945 13.7647 216.741 13.8175 217.446 14.1337L382.709 88.2135C383.942 88.7661 384.701 90.0274 384.611 91.3755L376.414 214.966C376.325 216.314 375.406 217.465 374.111 217.849L200.513 269.455C199.771 269.675 198.976 269.622 198.27 269.306L33.0079 195.226C31.7751 194.673 31.0163 193.412 31.1057 192.064L39.3028 68.4731C39.3922 67.1251 40.3109 65.975 41.6059 65.5901L215.204 13.985Z" fill="#F56EBD"/>
<rect x="95.3956" y="96.5451" width="225.234" height="75.3834" transform="rotate(3.79455 95.3956 96.5451)" stroke="black" stroke-width="3"/>
<path d="M145.818 150.637L153.176 128.675L160.52 129.162L164.912 151.903L160.57 151.615L159.683 146.617L151.7 146.088L150.161 150.925L145.818 150.637ZM152.948 142.258L158.951 142.656L156.959 131.588L156.385 131.55L152.948 142.258ZM167.715 152.089L168.766 136.252L172.725 136.514L172.606 138.302L173.181 138.341C173.458 137.717 173.872 137.275 174.424 137.012C174.997 136.751 175.646 136.644 176.369 136.692L178.285 136.819L178.048 140.395L176.068 140.264C175.046 140.196 174.187 140.417 173.491 140.927C172.796 141.415 172.411 142.223 172.336 143.352L171.739 152.356L167.715 152.089ZM187 153.817C185.425 153.712 184.053 153.29 182.883 152.55C181.736 151.789 180.862 150.78 180.262 149.522C179.684 148.243 179.45 146.774 179.56 145.113L179.585 144.73C179.695 143.07 180.121 141.655 180.861 140.485C181.603 139.295 182.592 138.409 183.827 137.828C185.065 137.226 186.471 136.977 188.046 137.081C189.6 137.185 190.928 137.625 192.031 138.404C193.136 139.162 193.966 140.179 194.523 141.456C195.081 142.711 195.306 144.148 195.199 145.766L195.108 147.139L183.581 146.374C183.552 147.463 183.898 148.373 184.619 149.105C185.34 149.837 186.254 150.24 187.361 150.313C188.489 150.388 189.336 150.198 189.9 149.744C190.465 149.29 190.905 148.774 191.222 148.196L194.396 150.138C194.061 150.672 193.585 151.25 192.966 151.872C192.37 152.473 191.589 152.977 190.621 153.384C189.655 153.769 188.448 153.913 187 153.817ZM183.812 143.375L191.22 143.866C191.196 142.945 190.872 142.186 190.249 141.589C189.647 140.993 188.824 140.661 187.781 140.592C186.696 140.52 185.815 140.739 185.14 141.25C184.465 141.761 184.022 142.47 183.812 143.375ZM207.65 161.152L207.883 157.639L216.504 158.211C217.1 158.251 217.419 157.951 217.461 157.313L217.726 153.321L217.151 153.283C216.957 153.634 216.667 153.978 216.281 154.316C215.895 154.654 215.386 154.919 214.753 155.112C214.12 155.306 213.325 155.371 212.367 155.307C211.132 155.225 210.065 154.876 209.165 154.261C208.288 153.625 207.627 152.79 207.183 151.756C206.738 150.722 206.559 149.555 206.645 148.257L207.272 138.806L211.295 139.072L210.689 148.204C210.61 149.396 210.838 150.31 211.374 150.944C211.93 151.579 212.751 151.933 213.837 152.005C215.071 152.087 216.056 151.746 216.791 150.982C217.527 150.197 217.944 149.07 218.041 147.602L218.575 139.555L222.598 139.822L221.361 158.469C221.289 159.555 220.913 160.396 220.232 160.992C219.55 161.609 218.676 161.883 217.612 161.812L207.65 161.152ZM233.531 156.903C231.955 156.799 230.561 156.385 229.347 155.664C228.134 154.942 227.205 153.95 226.562 152.689C225.919 151.427 225.654 149.945 225.767 148.242L225.801 147.731C225.914 146.028 226.372 144.594 227.176 143.429C227.981 142.264 229.032 141.403 230.33 140.848C231.628 140.293 233.065 140.067 234.64 140.172C236.215 140.276 237.61 140.689 238.823 141.411C240.037 142.133 240.965 143.125 241.609 144.386C242.252 145.648 242.517 147.13 242.404 148.833L242.37 149.343C242.257 151.046 241.799 152.481 240.994 153.646C240.19 154.811 239.139 155.672 237.841 156.227C236.542 156.782 235.106 157.008 233.531 156.903ZM233.768 153.327C235.002 153.409 236.05 153.083 236.911 152.349C237.774 151.594 238.255 150.471 238.353 148.981L238.375 148.662C238.473 147.172 238.145 146.006 237.388 145.165C236.654 144.303 235.659 143.831 234.403 143.748C233.168 143.666 232.12 144.003 231.257 144.758C230.396 145.492 229.916 146.604 229.817 148.094L229.796 148.413C229.697 149.903 230.026 151.08 230.781 151.942C231.537 152.783 232.533 153.245 233.768 153.327ZM251.593 157.909C250.359 157.827 249.291 157.478 248.392 156.862C247.514 156.227 246.854 155.392 246.409 154.358C245.964 153.323 245.785 152.157 245.871 150.859L246.498 141.407L250.521 141.674L249.916 150.806C249.837 151.998 250.065 152.911 250.6 153.545C251.156 154.181 251.977 154.535 253.063 154.607C254.298 154.689 255.282 154.348 256.017 153.584C256.753 152.799 257.17 151.672 257.268 150.203L257.801 142.157L261.825 142.424L260.774 158.261L256.815 157.998L256.953 155.923L256.378 155.885C256.087 156.4 255.574 156.89 254.837 157.354C254.101 157.818 253.02 158.003 251.593 157.909Z" fill="black"/>
<rect x="90.1019" y="89.2627" width="10.8324" height="10.8324" transform="rotate(3.79455 90.1019 89.2627)" fill="white" stroke="black" stroke-width="3"/>
<rect x="315.535" y="104.214" width="10.8324" height="10.8324" transform="rotate(3.79455 315.535 104.214)" fill="white" stroke="black" stroke-width="3"/>
<rect x="85.0672" y="165.174" width="10.8324" height="10.8324" transform="rotate(3.79455 85.0672 165.174)" fill="white" stroke="black" stroke-width="3"/>
<rect x="310.5" y="180.125" width="10.8324" height="10.8324" transform="rotate(3.79455 310.5 180.125)" fill="white" stroke="black" stroke-width="3"/>
<path d="M334.053 110.445L341.19 110.931M341.19 110.931L348.075 111.375M341.19 110.931L342.258 94.8162M341.19 110.931L339.945 129.693M342.258 94.8162C341.054 90.3213 336.422 89.4424 331.932 89.3486M342.258 94.8162C343.93 90.3048 348.671 90.2519 353.197 90.759M339.945 129.693C340.995 134.337 345.695 135.4 350.23 135.495M339.945 129.693C338.104 134.121 333.517 134.594 328.965 134.084" stroke="black" stroke-width="3"/>
<path d="M332.425 192.524L332.425 263.313C332.425 302.409 364.118 334.102 403.214 334.102C442.31 334.102 474.003 302.409 474.003 263.313C474.003 224.218 442.31 192.524 403.214 192.524L332.425 192.524Z" fill="#FF8A22" stroke="black" stroke-width="3"/>
<path d="M385.393 274.448C384.348 274.448 383.495 274.128 382.833 273.488C382.193 272.826 381.873 271.952 381.873 270.864V261.904H377.905V258.576H381.873V253.648H385.905V258.576H390.257V261.904H385.905V270.16C385.905 270.8 386.204 271.12 386.801 271.12H389.873V274.448H385.393ZM393.907 274.448V252.048H397.939V260.528H398.515C398.686 260.186 398.953 259.845 399.315 259.504C399.678 259.162 400.158 258.885 400.755 258.672C401.374 258.437 402.153 258.32 403.091 258.32C404.329 258.32 405.406 258.608 406.323 259.184C407.262 259.738 407.987 260.517 408.499 261.52C409.011 262.501 409.267 263.653 409.267 264.976V274.448H405.235V265.296C405.235 264.101 404.937 263.205 404.339 262.608C403.763 262.01 402.931 261.712 401.843 261.712C400.606 261.712 399.646 262.128 398.963 262.96C398.281 263.77 397.939 264.912 397.939 266.384V274.448H393.907ZM420.858 274.896C419.279 274.896 417.882 274.565 416.666 273.904C415.471 273.221 414.533 272.272 413.85 271.056C413.189 269.818 412.858 268.368 412.858 266.704V266.32C412.858 264.656 413.189 263.216 413.85 262C414.511 260.762 415.439 259.813 416.634 259.152C417.829 258.469 419.215 258.128 420.794 258.128C422.351 258.128 423.706 258.48 424.858 259.184C426.01 259.866 426.906 260.826 427.546 262.064C428.186 263.28 428.506 264.698 428.506 266.32V267.696H416.954C416.997 268.784 417.402 269.669 418.17 270.352C418.938 271.034 419.877 271.376 420.986 271.376C422.117 271.376 422.949 271.13 423.482 270.64C424.015 270.149 424.421 269.605 424.698 269.008L427.994 270.736C427.695 271.29 427.258 271.898 426.682 272.56C426.127 273.2 425.381 273.754 424.442 274.224C423.503 274.672 422.309 274.896 420.858 274.896ZM416.986 264.688H424.41C424.325 263.77 423.951 263.034 423.29 262.48C422.65 261.925 421.807 261.648 420.762 261.648C419.674 261.648 418.81 261.925 418.17 262.48C417.53 263.034 417.135 263.77 416.986 264.688Z" fill="black"/>
<path d="M510.542 335.155L446.331 181.34L530.312 95.4404L630.671 335.847L510.542 335.155Z" fill="#519BF4" stroke="black" stroke-width="3"/>
<path d="M511.909 225.293L523.517 220.539L521.989 216.808L525.068 215.546L526.597 219.277L529.321 218.161C530.328 217.749 531.249 217.718 532.084 218.067C532.946 218.429 533.576 219.093 533.972 220.06L535.549 223.91L532.469 225.171L531.426 222.625C531.199 222.072 530.79 221.917 530.198 222.159L528.125 223.008L529.702 226.858L526.622 228.119L525.045 224.27L513.437 229.025L511.909 225.293ZM518.092 241.57C517.494 240.109 517.252 238.675 517.367 237.268C517.482 235.86 517.965 234.591 518.815 233.458C519.666 232.326 520.881 231.437 522.46 230.79L522.934 230.596C524.513 229.949 526.003 229.731 527.403 229.941C528.803 230.151 530.038 230.717 531.107 231.64C532.176 232.562 533.01 233.753 533.609 235.214C534.207 236.675 534.449 238.109 534.334 239.516C534.218 240.924 533.736 242.193 532.885 243.326C532.035 244.458 530.82 245.347 529.241 245.994L528.767 246.188C527.188 246.835 525.698 247.053 524.298 246.843C522.898 246.633 521.663 246.067 520.594 245.144C519.524 244.222 518.69 243.031 518.092 241.57ZM521.409 240.211C521.878 241.356 522.631 242.154 523.669 242.605C524.726 243.048 525.946 242.987 527.328 242.421L527.624 242.299C529.006 241.733 529.908 240.926 530.331 239.876C530.782 238.839 530.769 237.737 530.292 236.573C529.823 235.428 529.06 234.634 528.002 234.191C526.965 233.74 525.755 233.797 524.373 234.363L524.077 234.485C522.695 235.051 521.783 235.862 521.34 236.92C520.917 237.969 520.94 239.066 521.409 240.211ZM522.707 251.655L537.395 245.639L538.899 249.311L537.24 249.99L537.459 250.523C538.14 250.497 538.72 250.675 539.198 251.055C539.685 251.455 540.066 251.991 540.341 252.662L541.068 254.439L537.752 255.797L537 253.961C536.612 253.014 536.036 252.339 535.272 251.937C534.527 251.528 533.632 251.537 532.586 251.966L524.235 255.386L522.707 251.655Z" fill="black"/>
<path d="M102.753 307.453C101.011 315.908 93.5246 322.265 84.5537 322.265C82.5188 322.265 80.5604 321.938 78.728 321.333L70.0994 329.962L58.1543 318.017L66.8441 309.327C66.2772 307.547 65.9714 305.651 65.9714 303.683C65.9714 295.036 71.8775 287.768 79.8759 285.694L111.582 276.654L102.753 307.453Z" fill="black"/>
<path d="M70.0994 325.184L76.3389 318.944L77.8103 317.473L79.7864 318.125C81.3702 318.658 82.798 318.898 84.5537 318.886C91.8896 318.886 98.0189 313.687 99.4442 306.771L99.4701 306.645L99.5054 306.522L106.658 281.571L80.8023 288.943L80.7632 288.954L80.7239 288.965C74.179 290.662 69.35 296.613 69.35 303.683C69.3392 305.381 69.5639 306.763 70.0635 308.302L70.6876 310.262L69.2331 311.716L62.9324 318.017L70.0994 325.184ZM102.753 307.453C101.011 315.908 93.5246 322.265 84.5537 322.265C82.5188 322.265 80.5604 321.938 78.728 321.333L72.4884 327.573L70.0994 329.962L67.7104 327.573L60.5433 320.406L58.1543 318.017L60.5433 315.628L66.8441 309.327C66.2772 307.547 65.9714 305.651 65.9714 303.683C65.9714 295.036 71.8775 287.768 79.8759 285.694L107.755 277.745L111.582 276.654L110.486 280.48L102.753 307.453Z" fill="white"/>
<path d="M107.009 278.838L108.203 277.643L110.592 280.032L109.398 281.227L85.7477 304.877L84.5532 306.072L82.1642 303.682L83.3587 302.488L107.009 278.838Z" fill="white"/>
<path d="M79.4853 303.682C79.4853 306.481 81.7543 308.75 84.5532 308.75C87.3521 308.75 89.6211 306.481 89.6211 303.682C89.6211 300.883 87.3521 298.614 84.5532 298.614C81.7543 298.614 79.4853 300.883 79.4853 303.682Z" fill="white"/>
<path d="M117.924 334.795L325.502 334.795L325.502 270.986L117.924 270.986" stroke="white" stroke-width="3"/>
<path d="M149.28 311.896C147.744 311.896 146.347 311.576 145.088 310.936C143.851 310.296 142.869 309.368 142.144 308.152C141.419 306.936 141.056 305.464 141.056 303.736V303.288C141.056 301.56 141.419 300.088 142.144 298.872C142.869 297.656 143.851 296.728 145.088 296.088C146.347 295.448 147.744 295.128 149.28 295.128C150.795 295.128 152.096 295.394 153.184 295.928C154.272 296.461 155.147 297.197 155.808 298.136C156.491 299.053 156.939 300.098 157.152 301.272L153.248 302.104C153.163 301.464 152.971 300.888 152.672 300.376C152.373 299.864 151.947 299.458 151.392 299.16C150.859 298.861 150.187 298.712 149.376 298.712C148.565 298.712 147.829 298.893 147.168 299.256C146.528 299.597 146.016 300.12 145.632 300.824C145.269 301.506 145.088 302.349 145.088 303.352V303.672C145.088 304.674 145.269 305.528 145.632 306.232C146.016 306.914 146.528 307.437 147.168 307.8C147.829 308.141 148.565 308.312 149.376 308.312C150.592 308.312 151.509 308.002 152.128 307.384C152.768 306.744 153.173 305.912 153.344 304.888L157.248 305.816C156.971 306.946 156.491 307.981 155.808 308.92C155.147 309.837 154.272 310.562 153.184 311.096C152.096 311.629 150.795 311.896 149.28 311.896ZM160.574 311.448V289.048H164.606V297.528H165.182C165.353 297.186 165.619 296.845 165.982 296.504C166.345 296.162 166.825 295.885 167.422 295.672C168.041 295.437 168.819 295.32 169.758 295.32C170.995 295.32 172.073 295.608 172.99 296.184C173.929 296.738 174.654 297.517 175.166 298.52C175.678 299.501 175.934 300.653 175.934 301.976V311.448H171.902V302.296C171.902 301.101 171.603 300.205 171.006 299.608C170.43 299.01 169.598 298.712 168.51 298.712C167.273 298.712 166.313 299.128 165.63 299.96C164.947 300.77 164.606 301.912 164.606 303.384V311.448H160.574ZM185.221 311.896C184.09 311.896 183.077 311.704 182.181 311.32C181.285 310.914 180.57 310.338 180.037 309.592C179.525 308.824 179.269 307.896 179.269 306.808C179.269 305.72 179.525 304.813 180.037 304.088C180.57 303.341 181.295 302.786 182.213 302.424C183.151 302.04 184.218 301.848 185.413 301.848H189.765V300.952C189.765 300.205 189.53 299.597 189.061 299.128C188.591 298.637 187.845 298.392 186.821 298.392C185.818 298.392 185.071 298.626 184.581 299.096C184.09 299.544 183.77 300.13 183.621 300.856L179.909 299.608C180.165 298.797 180.57 298.061 181.125 297.4C181.701 296.717 182.458 296.173 183.397 295.768C184.357 295.341 185.519 295.128 186.885 295.128C188.975 295.128 190.629 295.65 191.845 296.696C193.061 297.741 193.669 299.256 193.669 301.24V307.16C193.669 307.8 193.967 308.12 194.565 308.12H195.845V311.448H193.157C192.367 311.448 191.717 311.256 191.205 310.872C190.693 310.488 190.437 309.976 190.437 309.336V309.304H189.829C189.743 309.56 189.551 309.901 189.253 310.328C188.954 310.733 188.485 311.096 187.845 311.416C187.205 311.736 186.33 311.896 185.221 311.896ZM185.925 308.632C187.055 308.632 187.973 308.322 188.677 307.704C189.402 307.064 189.765 306.221 189.765 305.176V304.856H185.701C184.954 304.856 184.367 305.016 183.941 305.336C183.514 305.656 183.301 306.104 183.301 306.68C183.301 307.256 183.525 307.725 183.973 308.088C184.421 308.45 185.071 308.632 185.925 308.632ZM198.793 311.448V289.048H202.825V311.448H198.793ZM207.293 311.448V289.048H211.325V311.448H207.293ZM223.025 311.896C221.446 311.896 220.049 311.565 218.833 310.904C217.638 310.221 216.699 309.272 216.017 308.056C215.355 306.818 215.025 305.368 215.025 303.704V303.32C215.025 301.656 215.355 300.216 216.017 299C216.678 297.762 217.606 296.813 218.801 296.152C219.995 295.469 221.382 295.128 222.961 295.128C224.518 295.128 225.873 295.48 227.025 296.184C228.177 296.866 229.073 297.826 229.713 299.064C230.353 300.28 230.673 301.698 230.673 303.32V304.696H219.121C219.163 305.784 219.569 306.669 220.337 307.352C221.105 308.034 222.043 308.376 223.153 308.376C224.283 308.376 225.115 308.13 225.649 307.64C226.182 307.149 226.587 306.605 226.865 306.008L230.161 307.736C229.862 308.29 229.425 308.898 228.849 309.56C228.294 310.2 227.547 310.754 226.609 311.224C225.67 311.672 224.475 311.896 223.025 311.896ZM219.153 301.688H226.577C226.491 300.77 226.118 300.034 225.457 299.48C224.817 298.925 223.974 298.648 222.929 298.648C221.841 298.648 220.977 298.925 220.337 299.48C219.697 300.034 219.302 300.77 219.153 301.688ZM234.262 311.448V295.576H238.23V297.656H238.806C239.062 297.101 239.542 296.578 240.246 296.088C240.95 295.576 242.016 295.32 243.446 295.32C244.683 295.32 245.76 295.608 246.678 296.184C247.616 296.738 248.342 297.517 248.854 298.52C249.366 299.501 249.622 300.653 249.622 301.976V311.448H245.59V302.296C245.59 301.101 245.291 300.205 244.694 299.608C244.118 299.01 243.286 298.712 242.198 298.712C240.96 298.712 240 299.128 239.318 299.96C238.635 300.77 238.294 301.912 238.294 303.384V311.448H234.262ZM253.212 303.576V303.064C253.212 301.4 253.543 299.981 254.204 298.808C254.866 297.613 255.74 296.706 256.828 296.088C257.938 295.448 259.143 295.128 260.444 295.128C261.895 295.128 262.994 295.384 263.74 295.896C264.487 296.408 265.031 296.941 265.372 297.496H265.948V295.576H269.916V314.264C269.916 315.352 269.596 316.216 268.956 316.856C268.316 317.517 267.463 317.848 266.396 317.848H255.772V314.328H264.988C265.586 314.328 265.884 314.008 265.884 313.368V309.24H265.308C265.095 309.581 264.796 309.933 264.412 310.296C264.028 310.637 263.516 310.925 262.876 311.16C262.236 311.394 261.426 311.512 260.444 311.512C259.143 311.512 257.938 311.202 256.828 310.584C255.74 309.944 254.866 309.037 254.204 307.864C253.543 306.669 253.212 305.24 253.212 303.576ZM261.596 307.992C262.834 307.992 263.868 307.597 264.7 306.808C265.532 306.018 265.948 304.909 265.948 303.48V303.16C265.948 301.709 265.532 300.6 264.7 299.832C263.89 299.042 262.855 298.648 261.596 298.648C260.359 298.648 259.324 299.042 258.492 299.832C257.66 300.6 257.244 301.709 257.244 303.16V303.48C257.244 304.909 257.66 306.018 258.492 306.808C259.324 307.597 260.359 307.992 261.596 307.992ZM281.619 311.896C280.04 311.896 278.643 311.565 277.427 310.904C276.232 310.221 275.293 309.272 274.611 308.056C273.949 306.818 273.619 305.368 273.619 303.704V303.32C273.619 301.656 273.949 300.216 274.611 299C275.272 297.762 276.2 296.813 277.395 296.152C278.589 295.469 279.976 295.128 281.555 295.128C283.112 295.128 284.467 295.48 285.619 296.184C286.771 296.866 287.667 297.826 288.307 299.064C288.947 300.28 289.267 301.698 289.267 303.32V304.696H277.715C277.757 305.784 278.163 306.669 278.931 307.352C279.699 308.034 280.637 308.376 281.747 308.376C282.877 308.376 283.709 308.13 284.243 307.64C284.776 307.149 285.181 306.605 285.459 306.008L288.755 307.736C288.456 308.29 288.019 308.898 287.443 309.56C286.888 310.2 286.141 310.754 285.203 311.224C284.264 311.672 283.069 311.896 281.619 311.896ZM277.747 301.688H285.171C285.085 300.77 284.712 300.034 284.051 299.48C283.411 298.925 282.568 298.648 281.523 298.648C280.435 298.648 279.571 298.925 278.931 299.48C278.291 300.034 277.896 300.77 277.747 301.688Z" fill="white"/>
<path d="M120.833 334.634C120.833 337.275 118.703 339.319 116.148 339.319C113.507 339.319 111.462 337.189 111.462 334.634C111.462 331.993 113.592 329.948 116.148 329.948C118.703 329.948 120.833 332.078 120.833 334.634Z" fill="black" stroke="white" stroke-width="2.4231" stroke-miterlimit="10"/>
<path d="M331.103 334.634C331.103 337.275 328.973 339.319 326.417 339.319C323.776 339.319 321.732 337.19 321.732 334.634C321.732 331.993 323.862 329.948 326.417 329.948C328.973 329.948 331.103 332.078 331.103 334.634Z" fill="black" stroke="white" stroke-width="2.4231" stroke-miterlimit="10"/>
<path d="M331.103 270.826C331.103 273.466 328.973 275.511 326.417 275.511C323.776 275.511 321.732 273.381 321.732 270.826C321.732 268.185 323.862 266.14 326.417 266.14C328.973 266.14 331.103 268.27 331.103 270.826Z" fill="black" stroke="white" stroke-width="2.4231" stroke-miterlimit="10"/>
<path d="M122.449 270.826C122.449 273.466 120.319 275.511 117.763 275.511C115.122 275.511 113.078 273.381 113.078 270.826C113.078 268.185 115.208 266.14 117.763 266.14C120.319 266.14 122.449 268.27 122.449 270.826Z" fill="black" stroke="white" stroke-width="2.4231" stroke-miterlimit="10"/>
</svg>
