<svg width="256" height="256" viewBox="0 0 256 256" fill="none" xmlns="http://www.w3.org/2000/svg">
<path fill-rule="evenodd" clip-rule="evenodd" d="M252.736 238.101C254.837 238.101 256.15 235.827 255.101 234.007L188.277 118.266C187.219 116.435 184.572 116.449 183.535 118.291L176.713 130.403C176.238 131.245 176.245 132.276 176.73 133.112L226.582 219.081C227.638 220.9 226.324 223.179 224.221 223.179H180.9C179.926 223.179 179.026 222.661 178.538 221.818L138.755 153.078C138.257 152.217 138.267 151.154 138.78 150.303L163.189 109.773H163.196H163.203L172.436 93.5279C172.915 92.6859 172.912 91.6532 172.427 90.8145L130.598 18.3646C129.548 16.5451 126.922 16.5451 125.871 18.3646L84.3459 90.2886C83.8616 91.1273 83.8581 92.1597 84.3368 93.0018L94.3395 110.599C94.3472 110.613 94.3665 110.613 94.3744 110.599C94.3821 110.586 94.4016 110.586 94.4092 110.599L103.903 127.453C104.944 129.302 107.605 129.308 108.653 127.463L115.443 115.518C115.922 114.675 115.918 113.64 115.431 112.801L104.235 93.4829C104.23 93.4748 104.23 93.4647 104.235 93.4567L104.236 93.4541C104.24 93.4476 104.24 93.4395 104.236 93.433C104.232 93.4265 104.232 93.4185 104.236 93.4118L126.518 54.7117C127.565 52.8921 130.19 52.8876 131.244 54.7036L152.749 91.759C153.235 92.5967 153.241 93.6296 152.764 94.4728L128.888 136.677C128.885 136.682 128.885 136.689 128.888 136.694C128.891 136.699 128.891 136.705 128.889 136.71L118.936 154.097C118.928 154.111 118.928 154.128 118.935 154.142C118.943 154.156 118.943 154.173 118.935 154.187L80.0388 221.81C79.5518 222.657 78.6495 223.179 77.6729 223.179H34.3379C32.2389 223.179 30.9256 220.908 31.972 219.088L80.8832 134.054C81.3633 133.219 81.368 132.193 80.8954 131.354L73.2396 117.763C72.2022 115.921 69.555 115.907 68.4981 117.738L1.36972 234.007C0.319231 235.827 1.63234 238.101 3.73333 238.101H87.9458C88.9194 238.101 89.8194 237.583 90.3073 236.741L125.873 175.353C126.925 173.538 129.545 173.538 130.596 175.353L166.162 236.741C166.65 237.583 167.55 238.101 168.524 238.101H252.736Z" fill="white"/>
</svg>
